{
    "patcher": {
        "fileversion": 1,
        "appversion": {
            "major": 9,
            "minor": 1,
            "revision": 2,
            "architecture": "x64",
            "modernui": 1
        },
        "classnamespace": "box",
        "rect": [ 1762.0, 93.0, 1495.0, 953.0 ],
        "gridonopen": 2,
        "gridsize": [ 8.0, 8.0 ],
        "gridsnaponopen": 2,
        "objectsnaponopen": 0,
        "subpatcher_template": "snap_to_grid_template",
        "boxes": [
            {
                "box": {
                    "attr": "position",
                    "id": "obj-29",
                    "maxclass": "attrui",
                    "numinlets": 1,
                    "numoutlets": 1,
                    "outlettype": [ "" ],
                    "parameter_enable": 0,
                    "patching_rect": [ 688.0, 328.0, 216.0, 22.0 ]
                }
            },
            {
                "box": {
                    "attr": "scale",
                    "id": "obj-28",
                    "maxclass": "attrui",
                    "numinlets": 1,
                    "numoutlets": 1,
                    "outlettype": [ "" ],
                    "parameter_enable": 0,
                    "patching_rect": [ 688.0, 352.0, 216.0, 22.0 ]
                }
            },
            {
                "box": {
                    "attr": "visible",
                    "id": "obj-24",
                    "maxclass": "attrui",
                    "numinlets": 1,
                    "numoutlets": 1,
                    "outlettype": [ "" ],
                    "parameter_enable": 0,
                    "patching_rect": [ 144.0, 16.0, 128.0, 22.0 ]
                }
            },
            {
                "box": {
                    "id": "obj-19",
                    "linecount": 2,
                    "maxclass": "comment",
                    "numinlets": 1,
                    "numoutlets": 0,
                    "patching_rect": [ 984.0, 240.0, 176.0, 33.0 ],
                    "text": "matched command\n/any_command \"message\""
                }
            },
            {
                "box": {
                    "id": "obj-18",
                    "linecount": 3,
                    "maxclass": "comment",
                    "numinlets": 1,
                    "numoutlets": 0,
                    "patching_rect": [ 976.0, 112.0, 150.0, 47.0 ],
                    "text": "patcherargs\n@console_prefix \"# > \"\n@console_cursor \"|\""
                }
            },
            {
                "box": {
                    "id": "obj-5",
                    "maxclass": "dict.view",
                    "numinlets": 1,
                    "numoutlets": 0,
                    "patching_rect": [ 952.0, 312.0, 200.0, 56.0 ]
                }
            },
            {
                "box": {
                    "id": "obj-15",
                    "maxclass": "button",
                    "numinlets": 1,
                    "numoutlets": 1,
                    "outlettype": [ "bang" ],
                    "parameter_enable": 0,
                    "patching_rect": [ 584.0, 40.0, 24.0, 24.0 ]
                }
            },
            {
                "box": {
                    "fontface": 0,
                    "fontname": "Arial",
                    "fontsize": 12.0,
                    "id": "obj-12",
                    "maxclass": "jit.fpsgui",
                    "mode": 5,
                    "numinlets": 1,
                    "numoutlets": 2,
                    "outlettype": [ "", "" ],
                    "patching_rect": [ 512.0, 304.0, 80.0, 35.0 ]
                }
            },
            {
                "box": {
                    "fontface": 0,
                    "fontname": "Arial",
                    "fontsize": 12.0,
                    "id": "obj-8",
                    "maxclass": "jit.fpsgui",
                    "mode": 3,
                    "numinlets": 1,
                    "numoutlets": 2,
                    "outlettype": [ "", "" ],
                    "patching_rect": [ 600.0, 304.0, 80.0, 35.0 ]
                }
            },
            {
                "box": {
                    "cols": 255,
                    "fontface": 0,
                    "fontname": "Arial",
                    "fontsize": 12.0,
                    "id": "obj-13",
                    "maxclass": "jit.cellblock",
                    "numinlets": 2,
                    "numoutlets": 4,
                    "outlettype": [ "list", "", "", "" ],
                    "patching_rect": [ 480.0, 512.0, 648.0, 192.0 ],
                    "rows": 8
                }
            },
            {
                "box": {
                    "id": "obj-11",
                    "maxclass": "number",
                    "numinlets": 1,
                    "numoutlets": 2,
                    "outlettype": [ "", "bang" ],
                    "parameter_enable": 0,
                    "patching_rect": [ 520.0, 40.0, 50.0, 22.0 ]
                }
            },
            {
                "box": {
                    "id": "obj-9",
                    "maxclass": "toggle",
                    "numinlets": 1,
                    "numoutlets": 1,
                    "outlettype": [ "int" ],
                    "parameter_enable": 0,
                    "patching_rect": [ 480.0, 40.0, 24.0, 24.0 ]
                }
            },
            {
                "box": {
                    "id": "obj-7",
                    "maxclass": "newobj",
                    "numinlets": 2,
                    "numoutlets": 1,
                    "outlettype": [ "bang" ],
                    "patching_rect": [ 480.0, 80.0, 69.0, 22.0 ],
                    "text": "qmetro 100"
                }
            },
            {
                "box": {
                    "id": "obj-6",
                    "maxclass": "jit.pwindow",
                    "numinlets": 1,
                    "numoutlets": 2,
                    "onscreen": 0,
                    "outlettype": [ "jit_matrix", "" ],
                    "patching_rect": [ 8.0, 128.0, 384.0, 288.0 ],
                    "sync": 0
                }
            },
            {
                "box": {
                    "id": "obj-3",
                    "maxclass": "newobj",
                    "numinlets": 1,
                    "numoutlets": 3,
                    "outlettype": [ "jit_gl_texture", "bang", "" ],
                    "patching_rect": [ 8.0, 48.0, 377.0, 22.0 ],
                    "text": "jit.world @visible 0 @output_texture 1 @erase_color 0 0 0 0 @fsaa 1"
                }
            },
            {
                "box": {
                    "fontsize": 12.0,
                    "id": "obj-2",
                    "linecount": 6,
                    "maxclass": "newobj",
                    "numinlets": 1,
                    "numoutlets": 2,
                    "outlettype": [ "", "" ],
                    "patching_rect": [ 496.0, 384.0, 136.0, 89.0 ],
                    "text": "jit.gl.text2d @axes 1 @fontname \"PT Mono\" @gl_color 1 1 1 1 @fontsize 12 @transform_reset 2 @position -0.9 0.9"
                }
            },
            {
                "box": {
                    "args": [ "@console_prefix", "# >", "@console_cursor", "|" ],
                    "bgmode": 0,
                    "border": 0,
                    "clickthrough": 0,
                    "enablehscroll": 0,
                    "enablevscroll": 0,
                    "id": "obj-1",
                    "lockeddragscroll": 0,
                    "lockedsize": 0,
                    "maxclass": "bpatcher",
                    "name": "typemachine-v8.maxpat",
                    "numinlets": 1,
                    "numoutlets": 2,
                    "offset": [ 0.0, 0.0 ],
                    "outlettype": [ "jit_matrix", "" ],
                    "patching_rect": [ 480.0, 112.0, 496.0, 168.0 ],
                    "varname": "typemachine-v8",
                    "viewvisibility": 1
                }
            },
            {
                "box": {
                    "attr": "fontsize",
                    "id": "obj-10",
                    "maxclass": "attrui",
                    "numinlets": 1,
                    "numoutlets": 1,
                    "outlettype": [ "" ],
                    "parameter_enable": 0,
                    "patching_rect": [ 512.0, 352.0, 150.0, 22.0 ]
                }
            },
            {
                "box": {
                    "attr": "enable",
                    "id": "obj-4",
                    "maxclass": "attrui",
                    "numinlets": 1,
                    "numoutlets": 1,
                    "outlettype": [ "" ],
                    "parameter_enable": 0,
                    "patching_rect": [ 8.0, 16.0, 128.0, 22.0 ]
                }
            }
        ],
        "lines": [
            {
                "patchline": {
                    "destination": [ "obj-12", 0 ],
                    "order": 1,
                    "source": [ "obj-1", 0 ]
                }
            },
            {
                "patchline": {
                    "destination": [ "obj-13", 0 ],
                    "order": 3,
                    "source": [ "obj-1", 0 ]
                }
            },
            {
                "patchline": {
                    "destination": [ "obj-2", 0 ],
                    "order": 2,
                    "source": [ "obj-1", 0 ]
                }
            },
            {
                "patchline": {
                    "destination": [ "obj-5", 0 ],
                    "source": [ "obj-1", 1 ]
                }
            },
            {
                "patchline": {
                    "destination": [ "obj-8", 0 ],
                    "order": 0,
                    "source": [ "obj-1", 0 ]
                }
            },
            {
                "patchline": {
                    "destination": [ "obj-2", 0 ],
                    "source": [ "obj-10", 0 ]
                }
            },
            {
                "patchline": {
                    "destination": [ "obj-7", 1 ],
                    "source": [ "obj-11", 0 ]
                }
            },
            {
                "patchline": {
                    "destination": [ "obj-1", 0 ],
                    "source": [ "obj-15", 0 ]
                }
            },
            {
                "patchline": {
                    "destination": [ "obj-3", 0 ],
                    "source": [ "obj-24", 0 ]
                }
            },
            {
                "patchline": {
                    "destination": [ "obj-2", 0 ],
                    "source": [ "obj-28", 0 ]
                }
            },
            {
                "patchline": {
                    "destination": [ "obj-2", 0 ],
                    "source": [ "obj-29", 0 ]
                }
            },
            {
                "patchline": {
                    "destination": [ "obj-6", 0 ],
                    "source": [ "obj-3", 0 ]
                }
            },
            {
                "patchline": {
                    "destination": [ "obj-3", 0 ],
                    "source": [ "obj-4", 0 ]
                }
            },
            {
                "patchline": {
                    "destination": [ "obj-1", 0 ],
                    "source": [ "obj-7", 0 ]
                }
            },
            {
                "patchline": {
                    "destination": [ "obj-7", 0 ],
                    "source": [ "obj-9", 0 ]
                }
            }
        ],
        "autosave": 0
    }
}